<?xml version="1.0" standalone="no"?>
<!DOCTYPE svg PUBLIC "-//W3C//DTD SVG 20010904//EN"
 "http://www.w3.org/TR/2001/REC-SVG-20010904/DTD/svg10.dtd">
<svg version="1.0" xmlns="http://www.w3.org/2000/svg"
 width="512.000000pt" height="512.000000pt" viewBox="0 0 512.000000 512.000000"
 preserveAspectRatio="xMidYMid meet">

<g transform="translate(0.000000,512.000000) scale(0.100000,-0.100000)"
fill="#000000" stroke="none">
<path d="M1436 5109 c-489 -63 -892 -435 -1021 -944 -57 -223 -55 -465 5 -824
70 -410 126 -542 304 -708 142 -133 314 -226 568 -307 204 -65 208 -69 257
-195 38 -99 40 -131 9 -131 -43 0 -102 -43 -125 -90 -28 -55 -29 -92 -2 -146
31 -65 75 -88 183 -94 l89 -5 33 -99 c36 -107 34 -126 -13 -126 -36 0 -99 -36
-124 -71 -28 -40 -36 -113 -16 -160 8 -20 32 -49 53 -65 35 -27 45 -29 140
-32 62 -2 107 -8 112 -15 9 -12 72 -195 72 -210 0 -4 -22 -7 -48 -7 -57 0
-127 -33 -156 -73 -30 -40 -30 -144 0 -183 45 -61 66 -69 197 -74 l122 -5 65
-183 c81 -227 104 -261 214 -317 l79 -40 121 0 c141 1 205 20 278 84 59 52 90
114 152 299 l53 157 126 5 c135 5 156 13 201 73 28 38 33 131 9 176 -29 55
-62 73 -142 79 -44 3 -71 9 -71 16 0 7 15 57 33 111 l34 100 110 5 c102 5 112
7 147 34 120 91 67 279 -83 294 -29 2 -51 9 -50 16 0 6 15 56 32 111 l33 100
89 5 c109 6 153 29 184 94 27 54 26 91 -1 146 -24 47 -83 90 -125 90 -12 0
-24 4 -27 9 -7 11 28 132 55 187 26 55 53 70 247 133 442 144 720 396 801 721
25 103 75 380 92 510 18 143 17 397 -4 506 -93 502 -444 898 -899 1015 -44 11
-129 25 -190 31 -250 27 -446 -34 -893 -276 -88 -47 -171 -86 -185 -86 -14 0
-97 39 -185 86 -467 253 -659 309 -939 273z m317 -215 c90 -20 245 -83 345
-139 43 -24 136 -87 207 -139 222 -162 338 -223 504 -266 123 -31 208 -41 341
-41 161 0 390 36 390 61 0 12 -25 16 -260 40 -272 29 -373 51 -503 108 -78 34
-75 53 18 109 123 75 397 208 500 244 98 33 104 34 255 33 126 0 170 -5 233
-22 353 -97 615 -376 724 -770 26 -92 27 -108 27 -327 0 -169 -4 -260 -17
-345 -39 -254 -80 -416 -130 -515 -28 -55 -126 -155 -205 -208 -74 -49 -251
-140 -352 -180 -153 -60 -431 -132 -632 -162 -281 -43 -709 -58 -983 -35 -611
52 -1084 207 -1372 449 -114 96 -171 211 -212 431 -40 210 -46 282 -46 540 1
246 2 259 28 352 115 414 395 699 767 778 109 24 277 25 373 4z m106 -2719
c217 -38 373 -49 696 -49 325 0 476 11 713 51 51 8 96 13 99 10 8 -8 -46 -164
-61 -176 -9 -8 -233 -10 -752 -9 l-738 3 -28 70 c-27 69 -35 115 -20 115 4 0
45 -7 91 -15z m1331 -518 c0 -7 -15 -58 -33 -112 l-34 -100 -563 0 -563 0 -34
100 c-18 54 -33 105 -33 112 0 10 123 13 630 13 507 0 630 -3 630 -13z m-190
-560 c0 -7 -15 -58 -33 -112 l-34 -100 -374 0 -374 0 -36 105 c-20 58 -35 108
-32 113 2 4 202 7 444 7 351 0 439 -3 439 -13z m-190 -559 c0 -7 -17 -64 -37
-127 -53 -160 -97 -201 -218 -201 -120 0 -159 36 -213 199 -23 68 -39 128 -36
132 9 15 504 11 504 -3z"/>
</g>
</svg>
